<?xml version="1.0" standalone="no"?>
<!DOCTYPE svg PUBLIC "-//W3C//DTD SVG 20010904//EN"
 "http://www.w3.org/TR/2001/REC-SVG-20010904/DTD/svg10.dtd">
<svg version="1.0" xmlns="http://www.w3.org/2000/svg"
 width="1500.000000pt" height="1500.000000pt" viewBox="0 0 1500.000000 1500.000000"
 preserveAspectRatio="xMidYMid meet">
<metadata>
Created by potrace 1.11, written by Peter Selinger 2001-2013
</metadata>
<g transform="translate(0.000000,1500.000000) scale(0.100000,-0.100000)"
fill="#000000" stroke="none">
<path d="M6979 13541 c-5 -13 -25 -18 -116 -25 -37 -3 -79 -8 -93 -10 -27 -5
-91 -13 -155 -21 -59 -8 -189 -30 -235 -41 -14 -3 -36 -7 -50 -9 -49 -7 -96
-16 -135 -27 -22 -6 -49 -12 -60 -14 -11 -1 -35 -7 -52 -13 -18 -5 -33 -8 -33
-5 0 3 -8 0 -18 -5 -11 -6 -30 -12 -44 -15 -33 -6 -218 -55 -238 -63 -8 -3
-17 -7 -20 -8 -3 0 -39 -11 -80 -25 -41 -13 -79 -24 -85 -26 -15 -3 -237 -84
-260 -94 -77 -34 -169 -70 -180 -70 -7 0 -18 -7 -25 -15 -7 -9 -15 -13 -18
-11 -3 3 -17 -1 -31 -8 -14 -8 -120 -60 -236 -117 -115 -56 -211 -106 -213
-111 -2 -4 -12 -8 -23 -8 -10 0 -19 -4 -19 -10 0 -5 -5 -10 -10 -10 -30 0
-543 -329 -620 -397 -13 -13 -28 -23 -32 -23 -3 0 -17 -9 -30 -20 -12 -11 -81
-66 -153 -122 -71 -57 -137 -110 -146 -118 -8 -8 -48 -44 -89 -80 -127 -112
-259 -239 -354 -341 -54 -57 -90 -97 -190 -209 -35 -40 -178 -212 -207 -250
-11 -14 -30 -38 -42 -55 -50 -63 -186 -255 -198 -277 -7 -13 -15 -25 -18 -28
-13 -11 -51 -70 -51 -79 0 -5 -4 -11 -8 -13 -7 -2 -44 -62 -145 -233 -7 -10
-23 -37 -36 -60 -33 -55 -212 -408 -239 -471 -12 -28 -34 -80 -50 -115 -27
-59 -75 -177 -78 -189 0 -3 -4 -14 -9 -25 -34 -85 -55 -140 -55 -146 0 -4 -5
-20 -12 -36 -6 -15 -12 -30 -12 -33 -1 -3 -14 -41 -28 -85 -40 -119 -110 -370
-133 -475 -2 -8 -11 -46 -19 -85 -9 -38 -19 -81 -21 -95 -20 -99 -26 -129 -29
-155 -2 -16 -7 -41 -10 -55 -3 -14 -8 -41 -11 -60 -2 -19 -7 -51 -9 -70 -3
-19 -8 -55 -11 -80 -3 -25 -8 -63 -11 -85 -6 -41 -13 -106 -17 -163 -1 -18 -9
-37 -16 -41 -8 -6 -9 -11 -3 -15 11 -7 10 -51 -2 -63 -10 -10 -7 -846 4 -863
5 -8 5 -21 -1 -32 -6 -12 -6 -18 1 -18 5 0 10 -5 10 -11 0 -5 -6 -7 -12 -3 -8
5 -7 1 2 -10 8 -10 15 -28 16 -40 1 -11 5 -43 8 -71 4 -27 9 -72 12 -100 2
-27 12 -95 20 -150 9 -55 18 -116 20 -135 18 -143 103 -508 171 -730 19 -63
36 -122 38 -130 12 -51 131 -369 171 -458 13 -29 24 -55 24 -58 0 -4 16 -41
36 -83 19 -42 36 -80 37 -86 1 -5 4 -12 7 -15 3 -3 34 -63 69 -135 65 -131
223 -413 288 -515 102 -157 127 -195 133 -200 3 -3 23 -32 45 -65 22 -33 42
-62 45 -65 3 -3 39 -50 80 -105 87 -116 100 -132 120 -154 8 -9 31 -37 50 -61
19 -25 37 -47 40 -50 4 -3 40 -43 81 -90 149 -172 461 -475 654 -637 28 -23
60 -50 72 -60 11 -10 31 -25 43 -33 12 -8 28 -20 34 -26 6 -6 58 -45 116 -88
58 -42 116 -86 128 -96 13 -11 26 -20 29 -20 3 0 19 -10 36 -22 18 -13 42 -28
54 -35 20 -10 23 -9 27 10 8 38 1 3485 -6 3493 -12 12 -578 8 -590 -4 -7 -7
-10 -396 -10 -1191 0 -956 -3 -1181 -13 -1181 -12 0 -34 23 -87 88 -35 43
-196 259 -244 327 -27 39 -57 79 -66 89 -10 11 -18 25 -18 32 0 7 -3 14 -8 16
-11 4 -172 247 -172 258 0 6 -3 10 -8 10 -4 0 -12 9 -17 19 -6 11 -49 82 -96
158 -116 184 -200 336 -293 524 -42 86 -76 159 -76 161 0 3 -9 26 -20 52 -12
25 -21 49 -21 53 0 5 -4 13 -9 18 -4 6 -22 46 -39 90 -16 44 -35 94 -42 110
-7 17 -13 35 -14 40 -2 6 -21 64 -43 130 -22 66 -45 138 -52 160 -12 44 -67
255 -75 289 -19 84 -30 138 -38 186 -15 84 -17 96 -22 120 -3 14 -8 39 -10 55
-2 17 -6 44 -9 60 -5 31 -14 102 -21 170 -3 22 -7 60 -10 85 -16 137 -19 230
-19 580 0 347 4 472 19 580 3 19 7 60 10 90 3 30 7 66 10 80 2 14 6 45 9 70 3
25 8 55 10 66 5 25 16 91 20 119 4 21 16 86 23 120 2 11 6 31 9 45 18 89 45
201 53 224 6 14 9 26 6 26 -2 0 2 18 10 40 8 22 14 42 14 45 0 3 8 30 17 61 9
31 17 62 19 68 1 6 5 18 8 26 3 8 10 31 16 50 9 33 65 198 78 230 3 8 7 20 8
25 4 16 66 168 73 180 4 5 7 15 8 20 2 12 27 69 87 195 22 47 41 87 42 90 0 3
9 21 20 40 11 19 20 37 20 40 2 13 92 180 146 272 16 27 29 51 29 54 0 3 8 17
19 32 10 15 58 88 106 162 80 123 230 338 245 350 4 3 26 32 51 64 24 33 58
75 74 94 17 20 50 58 74 86 161 187 359 388 522 531 30 26 67 59 84 74 27 24
196 159 276 221 42 33 137 99 224 157 163 108 187 123 196 123 5 0 9 4 9 8 0
5 16 14 35 22 19 8 35 17 35 22 0 4 7 8 15 8 8 0 15 3 15 8 0 4 10 12 23 18
12 6 67 34 122 64 134 71 368 187 395 195 18 6 68 27 82 35 89 51 627 229 803
266 11 2 49 11 84 20 78 19 78 19 216 44 61 11 121 22 134 25 72 14 223 32
411 50 222 22 712 22 910 0 30 -3 78 -8 105 -10 28 -2 67 -6 89 -9 103 -14
126 -17 191 -27 39 -6 81 -13 95 -15 14 -3 50 -9 80 -14 73 -13 98 -18 118
-24 9 -3 28 -7 42 -10 14 -3 36 -8 50 -11 31 -7 58 -13 88 -19 12 -3 26 -7 30
-10 5 -3 20 -7 34 -10 33 -6 171 -44 227 -63 24 -8 51 -16 60 -18 38 -8 328
-115 406 -149 17 -8 80 -35 140 -61 61 -26 114 -51 119 -56 6 -5 18 -9 28 -9
10 0 18 -3 18 -7 0 -9 48 -33 66 -33 7 0 14 -3 16 -7 2 -5 26 -19 53 -32 28
-14 87 -46 133 -73 46 -26 85 -48 87 -48 2 0 54 -31 115 -70 61 -38 115 -70
120 -70 4 0 10 -3 12 -7 5 -11 66 -53 77 -53 5 0 11 -4 13 -8 2 -4 32 -28 68
-52 35 -25 71 -50 80 -57 8 -6 57 -44 108 -83 86 -66 242 -195 321 -265 50
-45 361 -354 401 -400 32 -37 88 -102 210 -245 25 -29 47 -58 49 -64 2 -6 7
-13 11 -16 3 -3 19 -23 35 -45 17 -22 32 -42 35 -45 3 -3 17 -21 30 -40 13
-19 30 -41 37 -48 7 -7 13 -17 13 -22 0 -5 6 -15 13 -22 6 -7 26 -33 42 -58
17 -25 33 -49 38 -55 71 -94 252 -409 352 -615 31 -63 62 -126 69 -140 7 -14
30 -65 51 -115 20 -49 41 -101 47 -115 12 -29 18 -43 47 -120 30 -80 38 -104
41 -115 1 -5 6 -17 10 -26 43 -79 190 -646 226 -868 3 -18 7 -43 10 -54 8 -45
19 -124 28 -197 2 -25 7 -67 11 -95 11 -102 16 -152 20 -227 2 -43 6 -82 10
-88 3 -5 2 -10 -4 -10 -6 0 -7 -11 -2 -27 11 -38 11 -492 0 -520 -5 -13 -4
-25 2 -28 5 -4 7 -10 4 -14 -2 -5 -7 -51 -10 -102 -3 -52 -7 -112 -10 -134 -2
-22 -7 -67 -10 -100 -3 -33 -8 -71 -10 -85 -3 -14 -7 -46 -10 -71 -3 -25 -8
-56 -10 -69 -3 -13 -7 -40 -10 -60 -3 -20 -8 -47 -10 -60 -3 -14 -7 -37 -10
-52 -3 -16 -8 -43 -11 -60 -4 -18 -8 -42 -9 -53 -2 -11 -4 -20 -5 -20 -2 0 -7
-20 -20 -89 -6 -32 -16 -70 -21 -84 -5 -13 -12 -41 -15 -61 -3 -20 -13 -56
-21 -81 -9 -25 -17 -52 -18 -60 -2 -8 -4 -15 -6 -15 -1 0 -3 -9 -5 -20 -5 -33
-122 -371 -149 -429 -7 -17 -27 -65 -43 -106 -53 -134 -207 -456 -223 -465 -5
-4 -9 -15 -9 -26 0 -10 -4 -19 -8 -19 -5 0 -16 -17 -26 -38 -23 -48 -119 -211
-168 -284 -21 -31 -38 -59 -38 -62 0 -11 -293 -438 -354 -517 -12 -15 -30 -39
-41 -55 -29 -40 -155 -205 -168 -220 -7 -7 -28 -34 -47 -59 -71 -92 -66 -178
-66 1136 1 932 -2 1183 -11 1191 -15 12 -553 16 -571 4 -15 -9 -17 -3501 -3
-3510 5 -4 22 4 38 17 15 12 48 36 73 51 91 58 398 297 516 401 228 200 486
463 657 669 9 11 25 30 35 41 46 51 176 222 260 340 50 72 95 135 99 140 25
32 83 126 83 134 0 5 3 11 8 13 7 3 55 78 95 148 10 19 41 72 68 118 41 69
240 468 269 537 4 11 19 47 33 80 14 33 27 67 29 75 2 8 5 17 9 20 4 4 108
280 114 305 1 6 5 17 8 25 3 8 20 62 37 120 18 58 35 112 38 120 3 8 6 21 8
29 1 8 6 26 10 40 4 14 8 28 9 31 23 99 48 198 52 210 3 8 7 22 8 30 6 38 16
84 20 89 2 4 6 25 9 47 4 22 9 51 11 64 3 14 7 37 10 53 3 15 7 39 10 55 3 15
7 36 9 47 2 11 7 45 11 75 4 30 9 62 10 71 3 14 12 86 21 169 34 323 46 676
31 950 -8 131 -17 261 -22 300 -8 64 -17 145 -20 170 -5 41 -15 114 -19 135
-2 11 -6 41 -10 66 -8 55 -12 79 -32 189 -22 115 -23 122 -29 145 -2 11 -11
49 -20 85 -19 86 -38 159 -64 250 -12 41 -23 83 -26 92 -8 34 -128 393 -135
403 -4 6 -15 33 -25 60 -9 28 -23 64 -30 80 -7 17 -23 55 -35 85 -60 147 -165
365 -261 540 -86 156 -83 152 -146 253 -24 37 -43 72 -43 77 0 6 -4 10 -10 10
-5 0 -10 6 -10 14 0 8 -6 21 -13 28 -7 7 -48 67 -92 133 -44 66 -83 122 -86
125 -3 3 -37 48 -75 100 -39 52 -78 103 -87 112 -9 9 -17 21 -17 26 0 6 -4 12
-9 14 -4 2 -42 44 -82 93 -140 171 -350 391 -582 609 -90 85 -365 310 -447
366 -19 13 -37 27 -40 30 -10 12 -297 210 -304 210 -3 0 -39 23 -80 50 -42 28
-80 50 -86 50 -5 0 -10 5 -10 10 0 6 -4 10 -10 10 -5 0 -31 13 -58 29 -198
117 -454 242 -782 381 -63 27 -249 94 -295 106 -5 2 -37 13 -70 24 -63 22
-217 69 -248 75 -10 2 -35 9 -55 15 -63 20 -93 27 -217 55 -66 14 -131 29
-145 32 -14 3 -34 7 -45 9 -11 1 -31 5 -45 8 -50 11 -206 37 -250 42 -25 3
-56 7 -70 10 -14 2 -50 7 -80 10 -165 16 -197 21 -222 35 -15 8 -19 8 -14 0 4
-6 3 -11 -3 -11 -5 0 -12 6 -15 13 -5 10 -7 10 -12 0 -3 -7 -10 -13 -15 -13
-6 0 -7 5 -4 10 10 15 -844 13 -863 -2 -10 -9 -16 -8 -23 3 -8 12 -10 12 -19
-1 -8 -12 -11 -13 -19 -1 -6 9 -10 10 -12 2z"/>
<path d="M7433 12193 c-46 -35 -215 -167 -240 -188 -7 -5 -31 -25 -55 -42 -24
-18 -132 -102 -241 -188 -109 -85 -202 -155 -207 -155 -6 0 -10 -4 -10 -8 0
-5 -18 -21 -41 -38 -22 -16 -46 -34 -52 -39 -7 -6 -43 -35 -82 -65 -38 -30
-77 -60 -85 -67 -8 -6 -60 -47 -115 -90 -55 -43 -104 -81 -110 -86 -19 -15
-222 -172 -251 -194 -167 -128 -279 -221 -282 -234 -2 -9 3 -23 10 -30 7 -8
40 -50 72 -94 33 -44 65 -85 70 -92 17 -19 28 -33 85 -111 29 -40 61 -77 70
-82 14 -7 48 14 162 102 79 62 146 115 147 120 2 4 8 8 14 8 5 0 15 6 22 13
15 14 75 61 396 308 247 189 283 218 303 234 7 6 57 45 112 88 55 42 155 120
222 172 68 52 130 95 139 95 14 0 65 -34 144 -97 25 -20 273 -212 304 -236 16
-12 85 -65 152 -117 67 -52 172 -133 234 -180 61 -47 127 -100 148 -117 20
-18 40 -33 44 -33 4 0 13 -6 20 -13 7 -7 60 -49 118 -92 58 -44 107 -83 110
-86 5 -5 73 -59 183 -142 26 -20 53 -34 60 -31 6 3 23 21 37 40 14 19 30 41
35 47 6 7 63 81 128 166 78 103 114 158 109 167 -4 8 -66 59 -137 114 -72 55
-137 106 -145 113 -26 21 -372 291 -445 347 -38 29 -71 57 -73 62 -2 4 -10 8
-17 8 -7 0 -15 3 -17 8 -1 4 -34 32 -73 62 -38 30 -72 57 -75 60 -3 3 -32 25
-65 50 -33 25 -62 47 -65 50 -4 4 -79 62 -105 82 -5 4 -26 20 -45 36 -78 63
-304 238 -333 259 -18 12 -39 28 -47 36 -36 32 -156 124 -172 130 -11 4 -34
-7 -65 -30z"/>
<path d="M5996 9915 l-21 -11 0 -4116 c0 -2697 4 -4121 10 -4127 6 -5 24 -12
40 -15 17 -3 68 -15 115 -26 47 -11 94 -22 105 -24 11 -2 38 -9 60 -14 22 -6
55 -14 74 -17 19 -3 37 -8 41 -10 3 -2 29 -7 56 -11 27 -3 53 -8 57 -11 4 -3
14 1 22 7 13 11 15 545 15 4191 l0 4178 -22 7 c-37 11 -529 10 -552 -1z"/>
<path d="M7203 9915 c-13 -10 -15 -579 -15 -4214 0 -3020 3 -4206 11 -4214 6
-6 30 -12 53 -13 65 -3 70 -3 64 -12 -2 -4 4 -8 14 -9 11 -1 23 3 26 9 4 6 10
5 15 -3 8 -12 10 -12 18 0 6 9 14 10 22 5 17 -11 120 -15 134 -6 15 10 55 9
49 0 -7 -11 4 -10 28 3 15 8 19 8 14 0 -9 -14 7 -14 21 0 6 6 32 12 58 14 26
1 50 7 54 13 8 13 7 8419 -1 8428 -12 11 -550 10 -565 -1z"/>
<path d="M8407 9918 c-16 -9 -20 -8366 -5 -8385 6 -7 20 -11 32 -8 11 2 125
30 251 61 127 31 244 58 260 61 17 3 32 7 35 10 3 2 5 1861 5 4129 l1 4125
-23 5 c-34 9 -543 10 -556 2z"/>
<path d="M4804 5990 l-29 -5 -2 -1933 -2 -1933 37 -22 c33 -21 189 -99 202
-101 3 -1 25 -11 50 -23 74 -36 268 -113 283 -113 8 0 17 6 19 13 2 6 4 931 4
2054 -1 1563 -4 2045 -13 2054 -12 12 -486 20 -549 9z"/>
<path d="M9616 5985 c-20 -10 -20 -16 -21 -2055 0 -1125 1 -2053 4 -2062 4
-19 40 -25 57 -10 5 5 49 26 98 46 199 85 443 203 448 218 8 21 4 3856 -4
3863 -11 11 -559 11 -582 0z"/>
</g>
</svg>
